<mxfile host="app.diagrams.net" modified="2024-04-30T17:34:05.578Z" agent="Mozilla/5.0 (X11; Linux x86_64) AppleWebKit/537.36 (KHTML, like Gecko) Chrome/122.0.0.0 Safari/537.36" etag="JGtQVpEfFUg3v8Pz73bs" version="24.3.1" type="github">
  <diagram name="Page-1" id="kse7vjtmKsEr2--jnAdk">
    <mxGraphModel dx="1600" dy="767" grid="1" gridSize="10" guides="1" tooltips="1" connect="1" arrows="1" fold="1" page="1" pageScale="1" pageWidth="850" pageHeight="1100" math="0" shadow="0">
      <root>
        <mxCell id="0" />
        <mxCell id="1" parent="0" />
        <mxCell id="h6sXqNmCU9K96XIGyQ9f-1" value="Trip" style="swimlane;fontStyle=1;align=center;verticalAlign=top;childLayout=stackLayout;horizontal=1;startSize=26;horizontalStack=0;resizeParent=1;resizeParentMax=0;resizeLast=0;collapsible=1;marginBottom=0;whiteSpace=wrap;html=1;" vertex="1" parent="1">
          <mxGeometry x="60" y="60" width="400" height="350" as="geometry" />
        </mxCell>
        <mxCell id="h6sXqNmCU9K96XIGyQ9f-2" value="- rider: Rider&lt;div&gt;- driver : Driver&lt;/div&gt;&lt;div&gt;- srcLoc : Location&lt;/div&gt;&lt;div&gt;- dstLoc : Location&lt;/div&gt;&lt;div&gt;- status : TRIP_STATUS&lt;/div&gt;&lt;div&gt;- tripId : int&lt;/div&gt;&lt;div&gt;- price : double&lt;/div&gt;&lt;div&gt;- priceStrategy : PricingStrategy&lt;/div&gt;&lt;div&gt;- driverMatchingStrategy: DriverMatchingStrategy&lt;/div&gt;" style="text;strokeColor=none;fillColor=none;align=left;verticalAlign=top;spacingLeft=4;spacingRight=4;overflow=hidden;rotatable=0;points=[[0,0.5],[1,0.5]];portConstraint=eastwest;whiteSpace=wrap;html=1;" vertex="1" parent="h6sXqNmCU9K96XIGyQ9f-1">
          <mxGeometry y="26" width="400" height="164" as="geometry" />
        </mxCell>
        <mxCell id="h6sXqNmCU9K96XIGyQ9f-3" value="" style="line;strokeWidth=1;fillColor=none;align=left;verticalAlign=middle;spacingTop=-1;spacingLeft=3;spacingRight=3;rotatable=0;labelPosition=right;points=[];portConstraint=eastwest;strokeColor=inherit;" vertex="1" parent="h6sXqNmCU9K96XIGyQ9f-1">
          <mxGeometry y="190" width="400" height="8" as="geometry" />
        </mxCell>
        <mxCell id="h6sXqNmCU9K96XIGyQ9f-4" value="+ Trip(Rider rider, Driver driver, Location srcLoc, Location dstLoc, TRIP_STATUS status, int tripId, PriceStrategy priceStrategy, DriverMatchingStrategy driverMatchingStrategy)&lt;div&gt;&lt;br&gt;&lt;/div&gt;&lt;div&gt;+ getTripId() : id&lt;/div&gt;&lt;div&gt;+ displayPlayTripDetails()&amp;nbsp;&lt;/div&gt;" style="text;strokeColor=none;fillColor=none;align=left;verticalAlign=top;spacingLeft=4;spacingRight=4;overflow=hidden;rotatable=0;points=[[0,0.5],[1,0.5]];portConstraint=eastwest;whiteSpace=wrap;html=1;" vertex="1" parent="h6sXqNmCU9K96XIGyQ9f-1">
          <mxGeometry y="198" width="400" height="152" as="geometry" />
        </mxCell>
        <mxCell id="h6sXqNmCU9K96XIGyQ9f-5" value="&lt;font style=&quot;font-size: 14px;&quot;&gt;TripManager&lt;/font&gt;" style="swimlane;fontStyle=1;align=center;verticalAlign=top;childLayout=stackLayout;horizontal=1;startSize=26;horizontalStack=0;resizeParent=1;resizeParentMax=0;resizeLast=0;collapsible=1;marginBottom=0;whiteSpace=wrap;html=1;" vertex="1" parent="1">
          <mxGeometry x="70" y="610" width="450" height="386" as="geometry" />
        </mxCell>
        <mxCell id="h6sXqNmCU9K96XIGyQ9f-6" value="&lt;p&gt;&lt;font style=&quot;font-size: 14px;&quot;&gt;- &lt;u&gt;tripManagerInstance : TripManager&lt;/u&gt;&lt;br&gt;- riderManagerInstance : RiderManager&lt;br&gt;- driverManagerInstance: DriverManagerInstance&lt;br&gt;- tripMetaDataInfo : Map&amp;lt;int, TripMetaDaInaInfo&amp;gt;&lt;/font&gt;&lt;/p&gt;&lt;p&gt;&lt;font style=&quot;font-size: 14px;&quot;&gt;- tripInfo : Map&amp;lt;int, Trip&amp;gt;&lt;/font&gt;&lt;/p&gt;" style="text;strokeColor=none;fillColor=none;align=left;verticalAlign=top;spacingLeft=4;spacingRight=4;overflow=hidden;rotatable=0;points=[[0,0.5],[1,0.5]];portConstraint=eastwest;whiteSpace=wrap;html=1;" vertex="1" parent="h6sXqNmCU9K96XIGyQ9f-5">
          <mxGeometry y="26" width="450" height="134" as="geometry" />
        </mxCell>
        <mxCell id="h6sXqNmCU9K96XIGyQ9f-7" value="" style="line;strokeWidth=1;fillColor=none;align=left;verticalAlign=middle;spacingTop=-1;spacingLeft=3;spacingRight=3;rotatable=0;labelPosition=right;points=[];portConstraint=eastwest;strokeColor=inherit;" vertex="1" parent="h6sXqNmCU9K96XIGyQ9f-5">
          <mxGeometry y="160" width="450" height="8" as="geometry" />
        </mxCell>
        <mxCell id="h6sXqNmCU9K96XIGyQ9f-8" value="&lt;font style=&quot;font-size: 14px;&quot;&gt;- TripManager()&lt;/font&gt;&lt;div&gt;&lt;font size=&quot;3&quot;&gt;+ getTripManagerInstance() : TripManager&lt;/font&gt;&lt;/div&gt;&lt;div&gt;&lt;font size=&quot;3&quot;&gt;+ createTrip(Rider pRider, Location pSrcLoc, Location pDstLoc)&lt;/font&gt;&lt;/div&gt;&lt;div&gt;&lt;font size=&quot;3&quot;&gt;&lt;br&gt;&lt;/font&gt;&lt;/div&gt;&lt;div&gt;&lt;font size=&quot;3&quot;&gt;+ getTripsMap() : Map&amp;lt;String, Trip&amp;gt;&lt;/font&gt;&lt;/div&gt;" style="text;strokeColor=none;fillColor=none;align=left;verticalAlign=top;spacingLeft=4;spacingRight=4;overflow=hidden;rotatable=0;points=[[0,0.5],[1,0.5]];portConstraint=eastwest;whiteSpace=wrap;html=1;" vertex="1" parent="h6sXqNmCU9K96XIGyQ9f-5">
          <mxGeometry y="168" width="450" height="218" as="geometry" />
        </mxCell>
        <mxCell id="h6sXqNmCU9K96XIGyQ9f-9" value="TripMetaData" style="swimlane;fontStyle=1;align=center;verticalAlign=top;childLayout=stackLayout;horizontal=1;startSize=26;horizontalStack=0;resizeParent=1;resizeParentMax=0;resizeLast=0;collapsible=1;marginBottom=0;whiteSpace=wrap;html=1;" vertex="1" parent="1">
          <mxGeometry x="710" y="50" width="370" height="240" as="geometry" />
        </mxCell>
        <mxCell id="h6sXqNmCU9K96XIGyQ9f-10" value="- riderRating : RATING&lt;div&gt;- driverRating : RATING&lt;/div&gt;&lt;div&gt;- srcLoc : Location&lt;/div&gt;&lt;div&gt;- dstLoc : Location&lt;/div&gt;" style="text;strokeColor=none;fillColor=none;align=left;verticalAlign=top;spacingLeft=4;spacingRight=4;overflow=hidden;rotatable=0;points=[[0,0.5],[1,0.5]];portConstraint=eastwest;whiteSpace=wrap;html=1;" vertex="1" parent="h6sXqNmCU9K96XIGyQ9f-9">
          <mxGeometry y="26" width="370" height="84" as="geometry" />
        </mxCell>
        <mxCell id="h6sXqNmCU9K96XIGyQ9f-11" value="" style="line;strokeWidth=1;fillColor=none;align=left;verticalAlign=middle;spacingTop=-1;spacingLeft=3;spacingRight=3;rotatable=0;labelPosition=right;points=[];portConstraint=eastwest;strokeColor=inherit;" vertex="1" parent="h6sXqNmCU9K96XIGyQ9f-9">
          <mxGeometry y="110" width="370" height="8" as="geometry" />
        </mxCell>
        <mxCell id="h6sXqNmCU9K96XIGyQ9f-12" value="+ getRiderRating() : RATING&lt;div&gt;+getDriverRating() : RATING&lt;/div&gt;&lt;div&gt;+ setDriverRating(RATING rating)&lt;/div&gt;&lt;div&gt;+ TripMetaData(Location srcLoc, Location dstLoc, RATING riderRating)&lt;/div&gt;" style="text;strokeColor=none;fillColor=none;align=left;verticalAlign=top;spacingLeft=4;spacingRight=4;overflow=hidden;rotatable=0;points=[[0,0.5],[1,0.5]];portConstraint=eastwest;whiteSpace=wrap;html=1;" vertex="1" parent="h6sXqNmCU9K96XIGyQ9f-9">
          <mxGeometry y="118" width="370" height="122" as="geometry" />
        </mxCell>
        <mxCell id="h6sXqNmCU9K96XIGyQ9f-13" value="" style="endArrow=diamondThin;endFill=1;endSize=24;html=1;rounded=0;" edge="1" parent="1">
          <mxGeometry width="160" relative="1" as="geometry">
            <mxPoint x="280" y="420" as="sourcePoint" />
            <mxPoint x="280" y="600" as="targetPoint" />
          </mxGeometry>
        </mxCell>
        <mxCell id="h6sXqNmCU9K96XIGyQ9f-15" value="" style="endArrow=diamondThin;endFill=1;endSize=24;html=1;rounded=0;" edge="1" parent="1">
          <mxGeometry width="160" relative="1" as="geometry">
            <mxPoint x="700" y="250" as="sourcePoint" />
            <mxPoint x="430" y="580" as="targetPoint" />
          </mxGeometry>
        </mxCell>
        <mxCell id="h6sXqNmCU9K96XIGyQ9f-16" value="DriverManager" style="swimlane;fontStyle=1;align=center;verticalAlign=top;childLayout=stackLayout;horizontal=1;startSize=26;horizontalStack=0;resizeParent=1;resizeParentMax=0;resizeLast=0;collapsible=1;marginBottom=0;whiteSpace=wrap;html=1;" vertex="1" parent="1">
          <mxGeometry x="510" y="1160" width="340" height="270" as="geometry" />
        </mxCell>
        <mxCell id="h6sXqNmCU9K96XIGyQ9f-17" value="&lt;font style=&quot;font-size: 14px;&quot;&gt;- &lt;u&gt;driverManagerInstance: DriverManager&lt;/u&gt;&lt;/font&gt;&lt;div&gt;&lt;font size=&quot;3&quot;&gt;- driversMap : Map&amp;lt;String, Rider&amp;gt;&lt;/font&gt;&lt;/div&gt;" style="text;strokeColor=none;fillColor=none;align=left;verticalAlign=top;spacingLeft=4;spacingRight=4;overflow=hidden;rotatable=0;points=[[0,0.5],[1,0.5]];portConstraint=eastwest;whiteSpace=wrap;html=1;" vertex="1" parent="h6sXqNmCU9K96XIGyQ9f-16">
          <mxGeometry y="26" width="340" height="124" as="geometry" />
        </mxCell>
        <mxCell id="h6sXqNmCU9K96XIGyQ9f-18" value="" style="line;strokeWidth=1;fillColor=none;align=left;verticalAlign=middle;spacingTop=-1;spacingLeft=3;spacingRight=3;rotatable=0;labelPosition=right;points=[];portConstraint=eastwest;strokeColor=inherit;" vertex="1" parent="h6sXqNmCU9K96XIGyQ9f-16">
          <mxGeometry y="150" width="340" height="8" as="geometry" />
        </mxCell>
        <mxCell id="h6sXqNmCU9K96XIGyQ9f-19" value="-&amp;nbsp; DriverManager()&lt;div&gt;+ getDriverManagerInstance() : DriverManager&lt;/div&gt;&lt;div&gt;+ addDriver(String pDriverName, Rider rider)&lt;/div&gt;&lt;div&gt;+&amp;nbsp; getDriver(String pDriverName) : Driver&amp;nbsp;&lt;/div&gt;" style="text;strokeColor=none;fillColor=none;align=left;verticalAlign=top;spacingLeft=4;spacingRight=4;overflow=hidden;rotatable=0;points=[[0,0.5],[1,0.5]];portConstraint=eastwest;whiteSpace=wrap;html=1;" vertex="1" parent="h6sXqNmCU9K96XIGyQ9f-16">
          <mxGeometry y="158" width="340" height="112" as="geometry" />
        </mxCell>
        <mxCell id="h6sXqNmCU9K96XIGyQ9f-20" value="RiderManager" style="swimlane;fontStyle=1;align=center;verticalAlign=top;childLayout=stackLayout;horizontal=1;startSize=26;horizontalStack=0;resizeParent=1;resizeParentMax=0;resizeLast=0;collapsible=1;marginBottom=0;whiteSpace=wrap;html=1;" vertex="1" parent="1">
          <mxGeometry x="40" y="1160" width="340" height="270" as="geometry" />
        </mxCell>
        <mxCell id="h6sXqNmCU9K96XIGyQ9f-21" value="&lt;font style=&quot;font-size: 14px;&quot;&gt;- &lt;u&gt;riderManagerInstance: RiderManager&lt;/u&gt;&lt;/font&gt;&lt;div&gt;&lt;font size=&quot;3&quot;&gt;- ridersMap : Map&amp;lt;String, Rider&amp;gt;&lt;/font&gt;&lt;/div&gt;" style="text;strokeColor=none;fillColor=none;align=left;verticalAlign=top;spacingLeft=4;spacingRight=4;overflow=hidden;rotatable=0;points=[[0,0.5],[1,0.5]];portConstraint=eastwest;whiteSpace=wrap;html=1;" vertex="1" parent="h6sXqNmCU9K96XIGyQ9f-20">
          <mxGeometry y="26" width="340" height="124" as="geometry" />
        </mxCell>
        <mxCell id="h6sXqNmCU9K96XIGyQ9f-22" value="" style="line;strokeWidth=1;fillColor=none;align=left;verticalAlign=middle;spacingTop=-1;spacingLeft=3;spacingRight=3;rotatable=0;labelPosition=right;points=[];portConstraint=eastwest;strokeColor=inherit;" vertex="1" parent="h6sXqNmCU9K96XIGyQ9f-20">
          <mxGeometry y="150" width="340" height="8" as="geometry" />
        </mxCell>
        <mxCell id="h6sXqNmCU9K96XIGyQ9f-23" value="-&amp;nbsp; RiderManager()&lt;div&gt;+ getRiderManagerInstance() : RiderManager&lt;/div&gt;&lt;div&gt;+ addRider(String pRiderName, Rider rider)&lt;/div&gt;&lt;div&gt;+&amp;nbsp; getRider(String pRiderName) : Driver&amp;nbsp;&lt;/div&gt;" style="text;strokeColor=none;fillColor=none;align=left;verticalAlign=top;spacingLeft=4;spacingRight=4;overflow=hidden;rotatable=0;points=[[0,0.5],[1,0.5]];portConstraint=eastwest;whiteSpace=wrap;html=1;" vertex="1" parent="h6sXqNmCU9K96XIGyQ9f-20">
          <mxGeometry y="158" width="340" height="112" as="geometry" />
        </mxCell>
        <mxCell id="h6sXqNmCU9K96XIGyQ9f-32" value="Rider" style="swimlane;fontStyle=1;align=center;verticalAlign=top;childLayout=stackLayout;horizontal=1;startSize=26;horizontalStack=0;resizeParent=1;resizeParentMax=0;resizeLast=0;collapsible=1;marginBottom=0;whiteSpace=wrap;html=1;" vertex="1" parent="1">
          <mxGeometry x="40" y="1550" width="350" height="200" as="geometry" />
        </mxCell>
        <mxCell id="h6sXqNmCU9K96XIGyQ9f-33" value="- name : String&lt;div&gt;- rating : RATING&lt;/div&gt;" style="text;strokeColor=none;fillColor=none;align=left;verticalAlign=top;spacingLeft=4;spacingRight=4;overflow=hidden;rotatable=0;points=[[0,0.5],[1,0.5]];portConstraint=eastwest;whiteSpace=wrap;html=1;" vertex="1" parent="h6sXqNmCU9K96XIGyQ9f-32">
          <mxGeometry y="26" width="350" height="84" as="geometry" />
        </mxCell>
        <mxCell id="h6sXqNmCU9K96XIGyQ9f-34" value="" style="line;strokeWidth=1;fillColor=none;align=left;verticalAlign=middle;spacingTop=-1;spacingLeft=3;spacingRight=3;rotatable=0;labelPosition=right;points=[];portConstraint=eastwest;strokeColor=inherit;" vertex="1" parent="h6sXqNmCU9K96XIGyQ9f-32">
          <mxGeometry y="110" width="350" height="8" as="geometry" />
        </mxCell>
        <mxCell id="h6sXqNmCU9K96XIGyQ9f-35" value="+ Rider(String name, RATING rating)&lt;div&gt;+ getRiderRating() : RATING&lt;/div&gt;&lt;div&gt;+ getRiderName() : String&lt;/div&gt;" style="text;strokeColor=none;fillColor=none;align=left;verticalAlign=top;spacingLeft=4;spacingRight=4;overflow=hidden;rotatable=0;points=[[0,0.5],[1,0.5]];portConstraint=eastwest;whiteSpace=wrap;html=1;" vertex="1" parent="h6sXqNmCU9K96XIGyQ9f-32">
          <mxGeometry y="118" width="350" height="82" as="geometry" />
        </mxCell>
        <mxCell id="h6sXqNmCU9K96XIGyQ9f-36" value="Driver" style="swimlane;fontStyle=1;align=center;verticalAlign=top;childLayout=stackLayout;horizontal=1;startSize=26;horizontalStack=0;resizeParent=1;resizeParentMax=0;resizeLast=0;collapsible=1;marginBottom=0;whiteSpace=wrap;html=1;" vertex="1" parent="1">
          <mxGeometry x="520" y="1550" width="350" height="200" as="geometry" />
        </mxCell>
        <mxCell id="h6sXqNmCU9K96XIGyQ9f-37" value="- name : String&lt;div&gt;- rating : RATING&lt;/div&gt;&lt;div&gt;- avail : bool&lt;/div&gt;" style="text;strokeColor=none;fillColor=none;align=left;verticalAlign=top;spacingLeft=4;spacingRight=4;overflow=hidden;rotatable=0;points=[[0,0.5],[1,0.5]];portConstraint=eastwest;whiteSpace=wrap;html=1;" vertex="1" parent="h6sXqNmCU9K96XIGyQ9f-36">
          <mxGeometry y="26" width="350" height="84" as="geometry" />
        </mxCell>
        <mxCell id="h6sXqNmCU9K96XIGyQ9f-38" value="" style="line;strokeWidth=1;fillColor=none;align=left;verticalAlign=middle;spacingTop=-1;spacingLeft=3;spacingRight=3;rotatable=0;labelPosition=right;points=[];portConstraint=eastwest;strokeColor=inherit;" vertex="1" parent="h6sXqNmCU9K96XIGyQ9f-36">
          <mxGeometry y="110" width="350" height="8" as="geometry" />
        </mxCell>
        <mxCell id="h6sXqNmCU9K96XIGyQ9f-39" value="+ Driver(String name, RATING rating)&lt;div&gt;+ getDriverRating() : RATING&lt;/div&gt;&lt;div&gt;+ getDriverName() : String&lt;/div&gt;&lt;div&gt;+ updteAvail(boolean pAvail)&lt;/div&gt;" style="text;strokeColor=none;fillColor=none;align=left;verticalAlign=top;spacingLeft=4;spacingRight=4;overflow=hidden;rotatable=0;points=[[0,0.5],[1,0.5]];portConstraint=eastwest;whiteSpace=wrap;html=1;" vertex="1" parent="h6sXqNmCU9K96XIGyQ9f-36">
          <mxGeometry y="118" width="350" height="82" as="geometry" />
        </mxCell>
      </root>
    </mxGraphModel>
  </diagram>
</mxfile>
